HIERARCHY
ROOT Root
{
  OFFSET 0.0 0.0 0.0
  CHANNELS 6 Xposition Yposition Zposition Zrotation Yrotation Xrotation
  JOINT Hips
  {
    OFFSET 0.0 100.0 0.0
    CHANNELS 6 Xposition Yposition Zposition Zrotation Yrotation Xrotation
    JOINT Spine1
    {
      OFFSET 5.003913 -0.037094 -0.013727
      CHANNELS 3 Zrotation Yrotation Xrotation
      JOINT Spine2
      {
        OFFSET 7.125363 -1e-06 0.0
        CHANNELS 3 Zrotation Yrotation Xrotation
        JOINT Chest
        {
          OFFSET 7.594027 1e-06 0.0
          CHANNELS 3 Zrotation Yrotation Xrotation
          JOINT Neck1
          {
            OFFSET 26.313086 -0.460272 -0.181672
            CHANNELS 3 Zrotation Yrotation Xrotation
            JOINT Neck2
            {
              OFFSET 8.045911 0.0 0.0
              CHANNELS 3 Zrotation Yrotation Xrotation
              JOINT Head
              {
                OFFSET 6.432774 0.0 0.0
                CHANNELS 3 Zrotation Yrotation Xrotation
                JOINT HeadEnd
                {
                  OFFSET 16.169773 0.06451 0.00362
                  CHANNELS 3 Zrotation Yrotation Xrotation
                }
                JOINT Jaw
                {
                  OFFSET 0.108741 3.12938 0.002639
                  CHANNELS 3 Zrotation Yrotation Xrotation
                }
                JOINT LeftEye
                {
                  OFFSET 4.45173 8.166359 3.206392
                  CHANNELS 3 Zrotation Yrotation Xrotation
                }
                JOINT RightEye
                {
                  OFFSET 4.436895 8.135758 -3.222429
                  CHANNELS 3 Zrotation Yrotation Xrotation
                }
              }
            }
          }
          JOINT LeftShoulder
          {
            OFFSET 23.218927 5.195579 1.621656
            CHANNELS 3 Zrotation Yrotation Xrotation
            JOINT LeftArm
            {
              OFFSET 15.902118 2e-06 -2e-06
              CHANNELS 3 Zrotation Yrotation Xrotation
              JOINT LeftForeArm
              {
                OFFSET 28.739307 0.0 -1e-06
                CHANNELS 3 Zrotation Yrotation Xrotation
                JOINT LeftHand
                {
                  OFFSET 27.093981 -4e-06 0.0
                  CHANNELS 3 Zrotation Yrotation Xrotation
                  JOINT LeftHandThumb1
                  {
                    OFFSET 2.276781 3.380274 0.83384
                    CHANNELS 3 Zrotation Yrotation Xrotation
                    JOINT LeftHandThumb2
                    {
                      OFFSET 4.705309 -1e-06 -1e-06
                      CHANNELS 3 Zrotation Yrotation Xrotation
                      JOINT LeftHandThumb3
                      {
                        OFFSET 2.798515 0.0 3e-06
                        CHANNELS 3 Zrotation Yrotation Xrotation
                        JOINT LeftHandThumbEnd
                        {
                          OFFSET 3.180793 4e-06 -4e-06
                          CHANNELS 3 Zrotation Yrotation Xrotation
                        }
                      }
                    }
                  }
                  JOINT LeftHandIndex1
                  {
                    OFFSET 3.247786 2.352677 0.137192
                    CHANNELS 3 Zrotation Yrotation Xrotation
                    JOINT LeftHandIndex2
                    {
                      OFFSET 6.367095 1e-06 0.0
                      CHANNELS 3 Zrotation Yrotation Xrotation
                      JOINT LeftHandIndex3
                      {
                        OFFSET 3.662364 0.0 0.0
                        CHANNELS 3 Zrotation Yrotation Xrotation
                        JOINT LeftHandIndex4
                        {
                          OFFSET 2.329242 4e-06 -4e-06
                          CHANNELS 3 Zrotation Yrotation Xrotation
                          JOINT LeftHandIndexEnd
                          {
                            OFFSET 2.767823 1e-06 0.0
                            CHANNELS 3 Zrotation Yrotation Xrotation
                          }
                        }
                      }
                    }
                  }
                  JOINT LeftHandMiddle1
                  {
                    OFFSET 3.163612 0.945023 -0.406112
                    CHANNELS 3 Zrotation Yrotation Xrotation
                    JOINT LeftHandMiddle2
                    {
                      OFFSET 6.276789 3e-06 0.0
                      CHANNELS 3 Zrotation Yrotation Xrotation
                      JOINT LeftHandMiddle3
                      {
                        OFFSET 4.35652 -1e-06 4e-06
                        CHANNELS 3 Zrotation Yrotation Xrotation
                        JOINT LeftHandMiddle4
                        {
                          OFFSET 2.996877 0.0 8e-06
                          CHANNELS 3 Zrotation Yrotation Xrotation
                          JOINT LeftHandMiddleEnd
                          {
                            OFFSET 2.323256 3e-06 -4e-06
                            CHANNELS 3 Zrotation Yrotation Xrotation
                          }
                        }
                      }
                    }
                  }
                  JOINT LeftHandRing1
                  {
                    OFFSET 2.882606 -0.309162 0.107445
                    CHANNELS 3 Zrotation Yrotation Xrotation
                    JOINT LeftHandRing2
                    {
                      OFFSET 6.033198 0.0 4e-06
                      CHANNELS 3 Zrotation Yrotation Xrotation
                      JOINT LeftHandRing3
                      {
                        OFFSET 4.350578 3e-06 0.0
                        CHANNELS 3 Zrotation Yrotation Xrotation
                        JOINT LeftHandRing4
                        {
                          OFFSET 2.651321 2e-06 -7e-06
                          CHANNELS 3 Zrotation Yrotation Xrotation
                          JOINT LeftHandRingEnd
                          {
                            OFFSET 1.937663 1e-06 -4e-06
                            CHANNELS 3 Zrotation Yrotation Xrotation
                          }
                        }
                      }
                    }
                  }
                  JOINT LeftHandPinky1
                  {
                    OFFSET 2.865315 -1.525436 0.575687
                    CHANNELS 3 Zrotation Yrotation Xrotation
                    JOINT LeftHandPinky2
                    {
                      OFFSET 5.54936 1e-06 -8e-06
                      CHANNELS 3 Zrotation Yrotation Xrotation
                      JOINT LeftHandPinky3
                      {
                        OFFSET 3.070974 0.0 -4e-06
                        CHANNELS 3 Zrotation Yrotation Xrotation
                        JOINT LeftHandPinky4
                        {
                          OFFSET 1.549672 1e-06 0.0
                          CHANNELS 3 Zrotation Yrotation Xrotation
                          JOINT LeftHandPinkyEnd
                          {
                            OFFSET 1.952123 0.0 0.0
                            CHANNELS 3 Zrotation Yrotation Xrotation
                          }
                        }
                      }
                    }
                  }
                }
              }
            }
          }
          JOINT RightShoulder
          {
            OFFSET 23.161716 5.296122 -1.380114
            CHANNELS 3 Zrotation Yrotation Xrotation
            JOINT RightArm
            {
              OFFSET -16.027195 -2e-06 1.1e-05
              CHANNELS 3 Zrotation Yrotation Xrotation
              JOINT RightForeArm
              {
                OFFSET -28.736639 4e-06 2e-06
                CHANNELS 3 Zrotation Yrotation Xrotation
                JOINT RightHand
                {
                  OFFSET -27.133619 6e-06 0.0
                  CHANNELS 3 Zrotation Yrotation Xrotation
                  JOINT RightHandThumb1
                  {
                    OFFSET -2.274328 -3.351035 -0.83067
                    CHANNELS 3 Zrotation Yrotation Xrotation
                    JOINT RightHandThumb2
                    {
                      OFFSET -4.703594 -3e-06 2e-06
                      CHANNELS 3 Zrotation Yrotation Xrotation
                      JOINT RightHandThumb3
                      {
                        OFFSET -2.794935 -4e-06 -3e-06
                        CHANNELS 3 Zrotation Yrotation Xrotation
                        JOINT RightHandThumbEnd
                        {
                          OFFSET -3.183852 4e-06 1e-06
                          CHANNELS 3 Zrotation Yrotation Xrotation
                        }
                      }
                    }
                  }
                  JOINT RightHandIndex1
                  {
                    OFFSET -3.253496 -2.33755 -0.127667
                    CHANNELS 3 Zrotation Yrotation Xrotation
                    JOINT RightHandIndex2
                    {
                      OFFSET -6.344434 0.0 0.0
                      CHANNELS 3 Zrotation Yrotation Xrotation
                      JOINT RightHandIndex3
                      {
                        OFFSET -3.654871 0.0 -8e-06
                        CHANNELS 3 Zrotation Yrotation Xrotation
                        JOINT RightHandIndex4
                        {
                          OFFSET -2.327586 -1e-06 0.0
                          CHANNELS 3 Zrotation Yrotation Xrotation
                          JOINT RightHandIndexEnd
                          {
                            OFFSET -2.770001 3e-06 8e-06
                            CHANNELS 3 Zrotation Yrotation Xrotation
                          }
                        }
                      }
                    }
                  }
                  JOINT RightHandMiddle1
                  {
                    OFFSET -3.168223 -0.944764 0.411762
                    CHANNELS 3 Zrotation Yrotation Xrotation
                    JOINT RightHandMiddle2
                    {
                      OFFSET -6.266691 -1e-06 -4e-06
                      CHANNELS 3 Zrotation Yrotation Xrotation
                      JOINT RightHandMiddle3
                      {
                        OFFSET -4.348901 0.0 0.0
                        CHANNELS 3 Zrotation Yrotation Xrotation
                        JOINT RightHandMiddle4
                        {
                          OFFSET -3.00024 2e-06 -4e-06
                          CHANNELS 3 Zrotation Yrotation Xrotation
                          JOINT RightHandMiddleEnd
                          {
                            OFFSET -2.321477 -4e-06 -4e-06
                            CHANNELS 3 Zrotation Yrotation Xrotation
                          }
                        }
                      }
                    }
                  }
                  JOINT RightHandRing1
                  {
                    OFFSET -2.885654 0.293261 -0.119232
                    CHANNELS 3 Zrotation Yrotation Xrotation
                    JOINT RightHandRing2
                    {
                      OFFSET -6.032835 -1e-06 -4e-06
                      CHANNELS 3 Zrotation Yrotation Xrotation
                      JOINT RightHandRing3
                      {
                        OFFSET -4.33881 0.0 -4e-06
                        CHANNELS 3 Zrotation Yrotation Xrotation
                        JOINT RightHandRing4
                        {
                          OFFSET -2.654903 -4e-06 -4e-06
                          CHANNELS 3 Zrotation Yrotation Xrotation
                          JOINT RightHandRingEnd
                          {
                            OFFSET -1.935122 0.0 4e-06
                            CHANNELS 3 Zrotation Yrotation Xrotation
                          }
                        }
                      }
                    }
                  }
                  JOINT RightHandPinky1
                  {
                    OFFSET -2.866241 1.503904 -0.60527
                    CHANNELS 3 Zrotation Yrotation Xrotation
                    JOINT RightHandPinky2
                    {
                      OFFSET -5.553177 -2e-06 0.0
                      CHANNELS 3 Zrotation Yrotation Xrotation
                      JOINT RightHandPinky3
                      {
                        OFFSET -3.062664 -1e-06 -4e-06
                        CHANNELS 3 Zrotation Yrotation Xrotation
                        JOINT RightHandPinky4
                        {
                          OFFSET -1.546529 2e-06 4e-06
                          CHANNELS 3 Zrotation Yrotation Xrotation
                          JOINT RightHandPinkyEnd
                          {
                            OFFSET -1.952341 0.0 -4e-06
                            CHANNELS 3 Zrotation Yrotation Xrotation
                          }
                        }
                      }
                    }
                  }
                }
              }
            }
          }
        }
      }
    }
    JOINT LeftLeg
    {
      OFFSET -8.443107 2.567604 10.043214
      CHANNELS 3 Zrotation Yrotation Xrotation
      JOINT LeftShin
      {
        OFFSET 43.229198 1e-06 -1e-06
        CHANNELS 3 Zrotation Yrotation Xrotation
        JOINT LeftFoot
        {
          OFFSET 42.298611 1e-06 1e-06
          CHANNELS 3 Zrotation Yrotation Xrotation
          JOINT LeftToeBase
          {
            OFFSET 14.165858 1e-06 0.0
            CHANNELS 3 Zrotation Yrotation Xrotation
            JOINT LeftToeEnd
            {
              OFFSET 6.7141 -0.234461 0.0
              CHANNELS 3 Zrotation Yrotation Xrotation
            }
          }
        }
      }
    }
    JOINT RightLeg
    {
      OFFSET -8.303923 2.592729 -10.047278
      CHANNELS 3 Zrotation Yrotation Xrotation
      JOINT RightShin
      {
        OFFSET -43.369682 0.0 1e-06
        CHANNELS 3 Zrotation Yrotation Xrotation
        JOINT RightFoot
        {
          OFFSET -42.260784 4e-06 2e-06
          CHANNELS 3 Zrotation Yrotation Xrotation
          JOINT RightToeBase
          {
            OFFSET -14.222245 -2e-06 -1e-06
            CHANNELS 3 Zrotation Yrotation Xrotation
            JOINT RightToeEnd
            {
              OFFSET -6.660062 0.232574 -2e-06
              CHANNELS 3 Zrotation Yrotation Xrotation
            }
          }
        }
      }
    }
  }
}
MOTION
Frames: 4
Frame Time: 0.03333333333333333
0.0 0.0 0.0 0.0 -0.0 0.0 -4.947628 99.711807 -2.624934 88.849365 2.219167 90.023773 -2.100279 0.577238 -0.168223 -11.773723 -0.329703 -0.449134 19.629171 1.73588 -2.170936 21.296631 -4.692004 2.787434 -2.537814 -0.679222 2.261416 -30.878706 1.920288 0.835555 6e-06 -0.0 0.0 0.021464 0.010764 -0.021052 0.065489 -0.017817 -0.022543 0.026932 0.040059 -0.007214 -127.321365 -70.689842 145.461243 42.229755 -49.197567 14.024161 33.362865 0.247438 0.062099 -3.398509 2.413155 4.646413 17.636633 -26.322733 52.411205 -19.466663 -14.395597 29.410395 -1e-06 -8.774822 -0.0 16.045982 -18.179066 5.969355 -0.609775 -1.795653 -3.889328 -4.807089 -11.046811 -2.93785 5e-06 -20.976015 -3e-06 -5.019969 -25.033556 -4.031882 7e-06 -2e-06 -0.0 -10.634533 -5.686968 -3.565584 10.573272 -17.922949 -3.113899 3e-06 -13.821206 -1e-06 -0.501776 -31.181498 -4.027013 -11.436912 -59.527748 7.075272 -13.982712 -7.150198 -2.875043 13.772729 -8.401492 -3.21824 0.347733 -34.211552 0.771654 -0.96303 -17.733368 2.621023 -1e-06 -0.0 -1e-06 -17.346415 -20.095217 -4.201783 21.757555 -1.638376 3.866428 1e-06 -6.338822 1e-06 -1.697587 -22.591742 -6.194002 1e-06 -4e-06 -3e-06 51.749664 -77.636909 144.425674 19.97357 -59.677242 15.485024 41.876652 0.173445 0.222671 -4.539219 -0.150984 2.549344 22.182116 -20.375898 49.933327 -16.701809 -16.74353 28.47653 -3e-06 -12.690602 -1e-06 16.09676 -17.716288 2.611479 -0.10592 -1.513856 -4.275882 -5.039041 -5.612869 -2.953557 4e-06 -11.020521 -2e-06 -6.111299 -15.89533 -3.840471 -1e-06 1e-06 1e-06 -10.283371 -5.680288 -4.341838 11.028295 -11.302404 -2.372632 -1.38427 -14.23858 -6.32012 -0.625439 -26.924187 -3.827603 -4.372109 -49.807323 -3.848721 -13.708526 -7.363476 -3.720941 18.14115 -14.052738 -3.242671 4e-06 -18.787268 -2e-06 -0.429713 -8.456041 2.555502 -1e-06 2e-06 -0.0 -15.923536 -20.094482 -5.473588 30.419218 -7.190825 1.735928 3e-06 -8.162925 1e-06 -1.861905 -22.861467 -6.167942 2e-06 -4e-06 -2e-06 -178.442032 -9.407923 -3.049097 10.372996 -0.026226 0.083082 -78.605484 3.481064 -9.706584 -4.734673 1.542246 2.148903 -0.999999 0.0 -0.0 5.330066 -3.353954 -11.523484 7.643135 0.000345 -0.021746 -78.742989 -1.877514 -8.049783 -4.290406 0.66421 1.671954 -1.000003 0.0 -0.0 
0.0 0.0 0.0 0.0 -0.0 0.0 -4.941794 99.728928 -2.57018 88.85672 2.172217 90.023262 -2.115985 0.584068 -0.188889 -11.761641 -0.309697 -0.397262 19.567123 1.766887 -2.206885 20.854031 -4.611519 2.776134 -2.523119 -0.667152 2.379857 -31.289473 1.922414 0.896511 6e-06 -0.0 0.0 0.01578 0.010253 4.9e-05 0.075519 -0.013519 -0.002015 0.034229 0.035066 0.01428 -127.410416 -70.671837 145.569946 42.257618 -49.157631 13.843728 33.323044 0.19904 -0.001721 -3.365821 2.451329 4.905269 17.636627 -26.322733 52.411201 -19.466663 -14.395597 29.410395 0.0 -8.774822 -3e-06 15.997724 -18.128683 5.979403 -0.609777 -1.795654 -3.889329 -4.807089 -11.046812 -2.93785 4e-06 -20.976019 -1e-06 -5.01997 -25.033564 -4.031882 7e-06 -1e-06 -1e-06 -10.634535 -5.686973 -3.565589 10.573275 -17.922953 -3.113897 2e-06 -13.821211 -1e-06 -0.501779 -31.181505 -4.027014 -11.372238 -59.481884 7.12408 -13.982714 -7.150199 -2.875046 13.772731 -8.401493 -3.218242 0.347734 -34.211555 0.771651 -0.963031 -17.733372 2.621021 -0.0 -0.0 0.0 -17.346422 -20.095221 -4.201784 21.757561 -1.638374 3.866428 1e-06 -6.338824 1e-06 -1.697591 -22.591747 -6.194002 2e-06 -5e-06 -4e-06 51.532478 -77.613998 144.748413 20.270779 -59.612759 15.122169 41.646534 0.184192 0.211155 -4.569932 -0.292326 2.530837 22.182114 -20.375887 49.933319 -16.701809 -16.743528 28.476522 -3e-06 -12.690601 -0.0 16.089935 -17.696985 2.599776 -0.105919 -1.513856 -4.275882 -5.039041 -5.61287 -2.953556 4e-06 -11.020523 -3e-06 -6.111297 -15.895329 -3.840472 -1e-06 2e-06 0.0 -10.283371 -5.680288 -4.341839 11.028294 -11.302404 -2.372633 -1.384269 -14.238578 -6.320121 -0.625438 -26.924185 -3.827603 -4.360324 -49.903278 -3.830446 -13.708524 -7.363475 -3.720941 18.141148 -14.052738 -3.242672 5e-06 -18.787268 -2e-06 -0.42971 -8.456043 2.555501 0.0 1e-06 1e-06 -15.923534 -20.094482 -5.473586 30.41921 -7.190826 1.735925 3e-06 -8.162925 -1e-06 -1.8619 -22.861467 -6.167939 0.0 -6e-06 -1e-06 -178.460327 -9.408144 -3.065209 10.367681 -0.020597 0.115541 -78.548698 3.503312 -9.763813 -4.770629 1.549625 2.153559 -0.999998 0.0 -0.0 5.43278 -3.343111 -11.48368 7.375101 -0.009235 -0.000812 -78.603523 -1.892562 -8.067219 -4.296465 0.65712 1.674461 -1.000002 -0.0 -0.0 
0.0 0.0 0.0 0.0 -0.0 0.0 -4.941199 99.726913 -2.516459 88.872253 2.128298 90.023277 -2.139315 0.600998 -0.204207 -11.764468 -0.299895 -0.374649 19.564068 1.794844 -2.217708 20.22567 -4.496834 2.79415 -2.552269 -0.634215 2.471152 -31.785604 1.957548 0.958182 6e-06 0.0 -0.0 0.010649 0.008757 -0.00019 0.067562 -0.011012 -0.002954 0.028307 0.029585 0.014126 -127.572388 -70.68119 145.690567 42.186726 -49.130745 13.731444 33.351257 0.144653 -0.05856 -3.410554 2.445298 5.11358 17.636625 -26.322731 52.411205 -19.466663 -14.395597 29.410395 -0.0 -8.774821 -3e-06 15.991898 -18.11948 5.98209 -0.609777 -1.795653 -3.889327 -4.807087 -11.046809 -2.937853 5e-06 -20.976015 -2e-06 -5.019967 -25.033552 -4.031881 5e-06 1e-06 1e-06 -10.634533 -5.686968 -3.56559 10.573274 -17.922951 -3.113899 3e-06 -13.821206 -1e-06 -0.501775 -31.181505 -4.027018 -11.36557 -59.424648 7.128084 -13.982712 -7.150197 -2.87504 13.77273 -8.40149 -3.218245 0.347735 -34.211544 0.771654 -0.963029 -17.733366 2.62102 -1e-06 -1e-06 -1e-06 -17.346416 -20.095215 -4.20178 21.757557 -1.638374 3.866427 1e-06 -6.338823 1e-06 -1.697587 -22.591745 -6.194006 -2e-06 -2e-06 -3e-06 51.175442 -77.610123 145.185013 20.476238 -59.531887 14.82623 41.434605 0.185439 0.199846 -4.643278 -0.351546 2.475801 22.182121 -20.375895 49.933331 -16.701817 -16.74353 28.476538 -4e-06 -12.690603 -0.0 16.104336 -17.665215 2.607267 -0.105919 -1.513856 -4.275884 -5.039042 -5.612873 -2.953558 5e-06 -11.020526 -3e-06 -6.111297 -15.895334 -3.840475 -1e-06 0.0 1e-06 -10.283373 -5.680289 -4.341839 11.028297 -11.302407 -2.372634 -1.384267 -14.238585 -6.320123 -0.625436 -26.924191 -3.827602 -4.353206 -49.961674 -3.813975 -13.708525 -7.363477 -3.720942 18.141151 -14.052743 -3.242674 8e-06 -18.787271 -4e-06 -0.42971 -8.456043 2.555502 0.0 1e-06 1e-06 -15.923536 -20.094486 -5.473592 30.419222 -7.190832 1.735927 2e-06 -8.162929 -1e-06 -1.861899 -22.861475 -6.167946 1e-06 -4e-06 -0.0 -178.495743 -9.411844 -3.069428 10.395867 -0.019939 0.132418 -78.557014 3.499741 -9.786282 -4.751298 1.54916 2.157078 -0.999999 0.0 0.0 5.416736 -3.35548 -11.456716 7.379749 -0.009184 0.005706 -78.641899 -1.93215 -8.070322 -4.256493 0.659778 1.677687 -1.000003 -0.0 -0.0 
0.0 0.0 0.0 0.0 -0.0 0.0 -4.942985 99.72197 -2.465312 88.886322 2.085936 90.028572 -2.15541 0.614342 -0.221661 -11.7685 -0.293374 -0.37315 19.569872 1.824892 -2.188095 19.482822 -4.349844 2.807638 -2.586727 -0.601283 2.594068 -32.407284 2.041346 1.015184 6e-06 0.0 -0.0 0.007351 0.006619 -0.006474 0.056788 -0.009165 -0.009389 0.018967 0.023593 0.007577 -127.839684 -70.706474 145.898438 42.088875 -49.108509 13.704464 33.388603 0.123711 -0.090755 -3.449556 2.464877 5.31097 17.636635 -26.322733 52.411194 -19.466663 -14.395597 29.410389 0.0 -8.774822 0.0 15.970837 -18.099827 5.987948 -0.609777 -1.795654 -3.889326 -4.807091 -11.046814 -2.937852 3e-06 -20.976021 -2e-06 -5.019973 -25.033566 -4.031883 6e-06 0.0 1e-06 -10.634537 -5.686973 -3.565589 10.573275 -17.922955 -3.113896 2e-06 -13.821211 -3e-06 -0.501777 -31.181505 -4.027017 -11.353858 -59.362247 7.095054 -13.982717 -7.150201 -2.875041 13.772732 -8.401492 -3.218241 0.34773 -34.211555 0.771654 -0.963028 -17.733372 2.621019 -1e-06 -1e-06 -1e-06 -17.346424 -20.095222 -4.201779 21.757561 -1.638373 3.866429 1e-06 -6.338824 0.0 -1.697589 -22.591749 -6.194008 -1e-06 -5e-06 -4e-06 50.757854 -77.605667 145.635086 20.599232 -59.45858 14.698757 41.24176 0.20798 0.208676 -4.734645 -0.393593 2.444424 22.182121 -20.375891 49.933315 -16.701807 -16.74353 28.476524 -1e-06 -12.690603 -1e-06 16.12088 -17.635794 2.622396 -0.105919 -1.513856 -4.275882 -5.039042 -5.612871 -2.953555 3e-06 -11.020523 -1e-06 -6.1113 -15.895332 -3.840471 -0.0 1e-06 0.0 -10.283372 -5.680289 -4.341838 11.028296 -11.302404 -2.372633 -1.384272 -14.238581 -6.32012 -0.625443 -26.924194 -3.827602 -4.373181 -49.958195 -3.781557 -13.708527 -7.363477 -3.72094 18.141151 -14.052735 -3.242674 5e-06 -18.78727 -1e-06 -0.429711 -8.45604 2.555501 -1e-06 2e-06 1e-06 -15.923539 -20.094484 -5.473584 30.419218 -7.190824 1.73593 3e-06 -8.162927 -0.0 -1.861904 -22.861469 -6.167945 -0.0 -3e-06 -1e-06 -178.522888 -9.408208 -3.086827 10.410199 -0.023112 0.136215 -78.577568 3.478652 -9.783172 -4.733103 1.541422 2.155822 -1.0 0.0 0.0 5.390957 -3.369113 -11.445236 7.411233 -0.006816 -0.00104 -78.699791 -1.952752 -8.083015 -4.234173 0.663983 1.680122 -1.000002 0.0 0.0 
